<svg xmlns="http://www.w3.org/2000/svg" width="28" viewBox="-2 -4 24 24" fill="currentColor">
  <path d="M 10.6 17.913 L 11.164 17.896 L 11.764 17.516 L 12.212 17.088 L 12.68 16.892 L 13.403 15.643 L 13.754 15.506 L 14.495 15.369 L 15.901 15.526 L 16.291 15.722 L 16.487 16.052 L 16.544 16.541 L 16.817 16.697 L 17.325 16.736 L 17.618 16.482 L 17.735 16.073 L 17.735 15.487 L 17.521 15.096 L 17.052 14.785 L 16.193 14.512 L 15.12 14.316 L 14.281 14.394 L 13.832 14.413 L 13.598 13.184 L 12.621 11.408 L 12.134 8.812 L 11.333 7.427 L 10.104 6.1 L 9.714 5.475 L 9.207 4.988 L 9.089 3.406 L 9.186 2.841 L 9.421 2.274 L 9.382 1.513 L 9.226 0.849 L 9.48 -0.712 L 9.186 -1.727 L 8.524 -1.433 L 7.509 -0.399 L 6.494 -0.555 L 6.005 -1.609 L 5.362 -2.019 L 4.932 -1.16 L 4.991 -0.418 L 4.738 -0.282 L 4.444 -0.008 L 4.249 0.362 L 4.133 0.694 L 3.332 1.494 L 3.332 1.885 L 3.45 2.216 L 3.566 2.568 L 4.054 3.036 L 4.465 3.504 L 4.211 4.362 L 4.152 5.553 L 4.19 6.334 L 3.957 7.037 L 3.839 7.915 L 3.644 8.715 L 3.683 9.984 L 3.801 11.467 L 3.996 13.087 L 4.347 14.569 L 4.738 16.052 L 4.854 16.716 L 4.64 16.951 L 4.23 17.185 L 4.034 17.458 L 4.093 17.751 L 4.659 17.945 L 5.089 17.888 L 5.772 17.693 L 6.182 17.204 L 6.358 16.443 L 6.825 16.405 L 6.825 17.458 L 6.494 17.693 L 6.201 18.082 L 6.221 18.336 L 6.884 18.59 L 7.333 18.531 L 7.879 18.258 L 7.957 17.966 L 8.172 17.693 L 8.543 16.638 L 8.953 16.736 L 9.499 16.873 L 10.085 16.853 L 10.495 16.873 L 10.176 17.327 L 10.192 17.671 L 10.6 17.913 Z" style=""></path>
</svg>
